<svg xmlns="http://www.w3.org/2000/svg" version="1.1" xmlns:xlink="http://www.w3.org/1999/xlink" xmlns:svgjs="http://svgjs.dev/svgjs" viewBox="0 0 800 800"><defs><linearGradient x1="50%" y1="0%" x2="50%" y2="100%" id="uundulate-grad"><stop stop-color="hsl(105, 69%, 40%)" stop-opacity="1" offset="45%"></stop><stop stop-color="hsl(186, 67%, 23%)" stop-opacity="1" offset="100%"></stop></linearGradient></defs><g stroke-width="1" stroke="url(#uundulate-grad)" fill="none"><path d="M523.7071845336975 341.60450294656454C535.5046929415142 394.18461420900644 500.07841095925755 487.3242885290317 456.31987903404956 518.7732978735855C412.56134710884163 550.2223072181395 350.0011415159022 527.5049671907593 313.6662312926993 492.55974780042357C277.33132106949637 457.6145284100878 263.99030842437793 398.1551997971743 281.91230996267575 351.0362447999744C299.8343115009736 303.9172898027745 349.3179064742332 268.35371003332443 399.6918386765295 266.38876381386405C450.0657708788259 264.4238175944036 511.90967612588076 289.02439168412263 523.7071845336975 341.60450294656454C535.5046929415142 394.18461420900644 500.07841095925755 487.3242885290317 456.31987903404956 518.7732978735855 "></path><path d="M516.8345648661353 344.8486955318899C527.9766561401844 394.50768950197397 494.5185009347199 482.4729374708868 453.19099856091225 512.174779629632C411.8634961871047 541.8766217883774 352.7788575715509 520.4213562069627 318.4625534718592 487.4175378938679C284.1462493721676 454.4137195807731 271.5464040962224 398.25768700191026 288.47273888239255 353.7564517267771C305.3990736685627 309.25521645164383 352.13358003219685 275.66739111382986 399.7089604454767 273.81160857322834C447.28434085875654 271.9558260326269 505.6924735920861 295.1897015618059 516.8345648661353 344.8486955318899C527.9766561401844 394.50768950197397 494.5185009347199 482.4729374708868 453.19099856091225 512.174779629632 "></path><path d="M509.9619451985732 348.09288811721535C520.4486193388547 394.8307647949415 488.9585909101821 477.62158641274175 450.06211808777493 505.57626138567844C411.16564526536786 533.5309363586152 355.55657362719955 513.3377452231662 323.25887565101914 482.27532798731227C290.96117767483884 451.21291075145837 279.1024997680668 398.3601742066462 295.03316780210935 356.47665865357965C310.9638358361519 314.5931431005131 354.9492535901604 282.98107219433524 399.72608221442385 281.2344533325927C444.5029108386873 279.4878344708501 499.4752710582916 301.3550114394892 509.9619451985732 348.09288811721535C520.4486193388547 394.8307647949415 488.9585909101821 477.62158641274175 450.06211808777493 505.57626138567844 "></path><path d="M503.0893255310109 351.337126478908C512.9205825375249 395.15388586427616 483.39868088564435 472.7702811309639 446.93323761463773 498.9777889180921C410.467794343631 525.1852967052204 358.3342896828482 506.2541800157369 328.0551978301791 477.1331638571238C297.77610597751004 448.0121476985107 286.65859543991127 398.4627071877494 301.59359672182615 359.1969113567495C316.528598003741 319.9311155257496 357.76492714812406 290.29479905120786 399.74320398337096 288.6573438683242C441.7214808186179 287.0198886854405 493.25806852449693 307.52036709353973 503.0893255310109 351.337126478908C512.9205825375249 395.15388586427616 483.39868088564435 472.7702811309639 446.93323761463773 498.9777889180921 "></path><path d="M496.21670586344874 354.5813038054443C505.3925457361951 395.4769458984547 477.8387708611066 467.9189148140299 443.8043571415004 492.37925541534946C409.76994342189414 516.8395960166692 361.11200573849686 499.17055377315125 332.851520009339 471.9909386917791C304.59103428018125 444.81132361040693 294.21469111175577 398.56517913369635 308.15402564154294 361.9171030247631C322.0933601713302 325.26902691582984 360.58060070608764 297.60846487292423 399.7603257523181 296.08017336889947C438.94005079854855 294.5518818648747 487.0408659907024 313.68566171243396 496.21670586344874 354.5813038054443C505.3925457361951 395.4769458984547 477.8387708611066 467.9189148140299 443.8043571415004 492.37925541534946 "></path><path d="M489.3440861958866 357.82549639076973C497.8645089348653 395.80002119142216 472.2788608365688 463.06756375588486 440.6754766683631 485.780737171396C409.0720925001573 508.4939105869071 363.88972179414554 492.0869427893548 337.647842188499 466.84872878522344C311.40596258285245 441.6105147810921 301.7707867836002 398.6676663384323 314.71445456125974 364.6373099515657C327.6581223389193 330.60695356469915 363.39627426405127 304.9221459534296 399.77744752126523 303.50301812826376C436.1586207784793 302.0838903030979 480.82366345690775 319.85097159011724 489.3440861958866 357.82549639076973C497.8645089348653 395.80002119142216 472.2788608365688 463.06756375588486 440.6754766683631 485.780737171396 "></path><path d="M482.4714665283243 361.0696889760951C490.3364721335355 396.1230964843897 466.71895081203115 458.21621269773993 437.5465961952258 479.1822189274425C408.3742415784204 500.148225157145 366.66743784979417 485.0033318055582 342.4441643676589 461.7065188786678C318.22089088552366 438.4097059517773 309.32688245544466 398.77015354316825 321.27488348097654 367.35751687836836C333.2228845065084 335.9448802135684 366.21194782201485 312.23582703393504 399.7945692902124 310.9258628876281C433.37719075840994 309.6158987413212 474.6064609231132 326.0162814678005 482.4714665283243 361.0696889760951C490.3364721335355 396.1230964843897 466.71895081203115 458.21621269773993 437.5465961952258 479.1822189274425 "></path><path d="M475.59884686076214 364.31388156142054C482.8084353322058 396.4461717773572 461.1590407874934 453.3648616395949 434.4177157220885 472.5837006834889C407.67639065668357 491.80253972738296 369.44515390544285 477.91972082176176 347.24048654681883 456.56430897211214C325.03581918819486 435.20889712246253 316.8829781272891 398.87264074790426 327.83531240069334 370.077723805171C338.7876466740976 341.2828068624377 369.0276213799785 319.54950811444047 399.81169105915956 318.3487076469924C430.59576073834063 317.1479071795444 468.38925838931857 332.1815913454838 475.59884686076214 364.31388156142054C482.8084353322058 396.4461717773572 461.1590407874934 453.3648616395949 434.4177157220885 472.5837006834889 "></path><path d="M468.7262119344109 367.5580741467459C475.28038327208697 396.76924707032475 455.59911550416655 448.5135105814499 431.2888199901621 465.9851824395354C406.97852447615765 483.4568542976209 372.2228547023024 470.8361098379652 352.03679346718974 451.4220990655565C331.850732232077 432.0080882931478 324.4390585403445 398.97512795264026 334.3957260616211 372.7979307319736C344.35239358289766 346.62073351130704 371.843279679153 326.86318919494585 399.82879756931766 325.77155240635676C427.81431545948226 324.6799156177676 462.172040596735 338.3469012231671 468.7262119344109 367.5580741467459C475.28038327208697 396.76924707032475 455.59911550416655 448.5135105814499 431.2888199901621 465.9851824395354 "></path><path d="M461.85359226684875 370.80226673207136C467.7523464707571 397.0923223632923 450.0392054796288 443.6621595233049 428.1599395170248 459.38666419558183C406.2806735544208 475.1111688678588 375.0005707579511 463.7524988541687 356.83311564634965 446.27988915900085C338.6656605347482 428.80727946383297 331.99515421218894 399.0776151573762 340.9561549813379 375.51813765877625C349.9171557504868 351.95866016017635 374.65895323711663 334.1768702754513 399.84591933826476 333.19439716572106C425.03288543941295 332.2119240559909 455.9548380629404 344.5122111008504 461.85359226684875 370.80226673207136C467.7523464707571 397.0923223632923 450.0392054796288 443.6621595233049 428.1599395170248 459.38666419558183 "></path><path d="M454.9809725992866 374.0464440586077C460.2243096694273 397.41538239747075 444.47929545509106 438.8107932063709 425.03105904388747 452.7881306928392C405.58282263268393 466.7654681793076 377.7782868135998 456.6688726115831 361.62943782550957 441.13766399365613C345.4805888374194 425.6064553757292 339.55124988403344 399.1800871033231 347.5165839010547 378.2383293267898C355.48191791807596 357.29657155025654 377.4746267950802 341.49053609716765 399.8630411072119 340.61722666629635C422.25145541934364 339.74391723542504 449.7376355291458 350.6775057197446 454.9809725992866 374.0464440586077C460.2243096694273 397.41538239747075 444.47929545509106 438.8107932063709 425.03105904388747 452.7881306928392 "></path><path d="M448.10835293172437 377.2906366439331C452.69627286809754 397.7384576904383 438.9193854305533 433.9594421482259 421.9021785707502 446.18961244888567C404.88497171094707 458.41978274954556 380.5560028692484 449.58526162778656 366.42576000466954 435.9954540871005C352.2955171400906 422.4056465464144 347.1073455558779 399.2825743080591 354.0770128207715 380.95853625359246C361.04668008566506 362.63449819912586 380.29030035304385 348.804217177673 399.88016287615903 348.04007142566064C419.4700253992743 347.27592567364826 443.5204329953512 356.8428155974279 448.10835293172437 377.2906366439331C452.69627286809754 397.7384576904383 438.9193854305533 433.9594421482259 421.9021785707502 446.18961244888567 "></path><path d="M441.23573326416215 380.53484448804755C445.16823606676775 398.0615482421949 433.3594754060156 429.10810634886997 418.7732980976129 439.59110946372124C404.1871207892102 450.0741125785725 383.3337189248971 442.5016659027791 371.22208218382946 430.8532594393339C359.11044544276183 419.2048529758887 354.66344122772233 399.3850767715841 360.63744174048827 383.67875843918415C366.6114422532542 367.97244010678423 383.1059739110074 356.1179135169675 399.8972846451062 355.46293144381406C416.68859537920497 354.8079493706606 437.3032304615566 363.00814073390023 441.23573326416215 380.53484448804755C445.16823606676775 398.0615482421949 433.3594754060156 429.10810634886997 418.7732980976129 439.59110946372124 "></path><path d="M434.3630983378109 383.7790218145839C437.64018400664895 398.38460827637334 427.79955012268874 424.2567400319359 415.6444023656865 432.9925759609786C403.4892546086843 441.7284118900214 386.1114197217567 435.41803966019353 376.0183891042003 425.7110342739892C365.925358486644 416.00402888778484 362.2195216407777 399.48754871753107 367.197855401416 386.3989501071978C372.1761891620543 373.3103514968644 385.921632210182 363.4315793386839 399.9143911552643 362.8857609443893C413.9071501003466 362.33994255009475 431.08601266897296 369.1734353527945 434.3630983378109 383.7790218145839C437.64018400664895 398.38460827637334 427.79955012268874 424.2567400319359 415.6444023656865 432.9925759609786 "></path><path d="M427.49047867024876 387.0232143999093C430.11214720531916 398.7076835693408 422.23964009815097 419.4053889737909 412.5155218925492 426.3940577170251C402.79140368694743 433.3827264602593 388.88913577740533 428.334428676397 380.8147112833603 420.56882436743354C372.7402867893152 412.80322005847006 369.77561731262216 399.590035922267 373.7582843211328 389.1191570340004C377.74095132964345 378.64827814573374 388.7373057681456 370.74526041918926 399.9315129242114 370.30860570375364C411.1257200802773 369.871950988318 424.86881013517836 375.3387452304778 427.49047867024876 387.0232143999093C430.11214720531916 398.7076835693408 422.23964009815097 419.4053889737909 412.5155218925492 426.3940577170251 "></path><path d="M420.61785900268654 390.2674222440238C422.58411040398937 399.0307741210974 416.67973007361326 414.55405317443496 409.38664141941194 419.7955547318606C402.0935527652106 425.0370562892863 391.666851833054 421.25083295138955 385.6110334625202 415.42662971966695C379.5552150919864 409.60242648794434 377.3317129844666 399.6925383857921 380.3187132408496 391.8393792195921C383.3057134972326 383.9862200533921 391.5529793261092 378.05895675848376 399.94863469315857 377.731465721907C408.344290060208 377.4039746853303 418.6516076013838 381.50407036695015 420.61785900268654 390.2674222440238C422.58411040398937 399.0307741210974 416.67973007361326 414.55405317443496 409.38664141941194 419.7955547318606 "></path><path d="M413.7452393351244 393.51163008813825C415.0560736026596 399.353864672854 411.1198200490755 409.70271737507903 406.25776094627463 413.19705174669616C401.3957018434737 416.69138611831323 394.4445678887027 414.1672372263821 390.4073556416801 410.28443507190036C386.3701433946576 406.4016329174186 384.8878086563111 399.7950408493171 386.8791421605664 394.5596014051838C388.8704756648217 389.3241619610505 394.3686528840728 385.37265309777825 399.96575646210573 385.1543257400604C405.5628600401386 384.9359983823426 412.4344050675892 387.6693955034225 413.7452393351244 393.51163008813825C415.0560736026596 399.353864672854 411.1198200490755 409.70271737507903 406.25776094627463 413.19705174669616 "></path><path d="M406.87261966756216 396.75580741467456C407.5280368013298 399.67692470703247 405.55991002453777 404.851351058145 403.1288804731373 406.59851824395355C400.69785092173686 408.34568542976206 397.2222839443513 407.0836109837965 395.2036778208401 405.14220990655565C393.1850716973288 403.2008088293148 392.44390432815555 399.89751279526405 393.4395710802832 397.27979307319737C394.43523783241085 394.6620733511307 397.1843264420364 392.68631891949457 399.98287823105284 392.57715524063565C402.7814300200693 392.4679915617768 406.2172025337946 393.8346901223167 406.87261966756216 396.75580741467456C407.5280368013298 399.67692470703247 405.55991002453777 404.851351058145 403.1288804731373 406.59851824395355 "></path></g></svg>