<svg xmlns="http://www.w3.org/2000/svg" version="1.1" xmlns:xlink="http://www.w3.org/1999/xlink" xmlns:svgjs="http://svgjs.dev/svgjs" viewBox="0 0 800 800"><defs><filter id="uuunion-blur" x="-100%" y="-100%" width="400%" height="400%" color-interpolation-filters="sRGB">
        <feGaussianBlur in="SourceGraphic" stdDeviation="7 4.5" result="blur"></feGaussianBlur>
        <feDropShadow stdDeviation="20.923076923076923" in="blur" dx="17" dy="17" flood-color="#070c36" flood-opacity="0.5" x="0%" y="0%" width="100%" height="100%"></feDropShadow>
      </filter><filter id="uuunion-blur2" x="-100%" y="-100%" width="400%" height="400%" color-interpolation-filters="sRGB">
        <feGaussianBlur in="SourceGraphic" stdDeviation="7 4.5" result="blur"></feGaussianBlur>
        <feDropShadow stdDeviation="20.923076923076923" in="blur" dx="-17" dy="-17" flood-color="#070c36" flood-opacity="0.5" x="0%" y="0%" width="100%" height="100%"></feDropShadow>
      </filter><linearGradient gradientTransform="rotate(157, 0.5, 0.5)" x1="50%" y1="0%" x2="50%" y2="100%" id="uuunion-grad"><stop stop-color="#09325f" offset="10%"></stop><stop stop-color="#070c36" offset="90%"></stop></linearGradient><linearGradient gradientTransform="rotate(157, 0.5, 0.5)" x1="50%" y1="0%" x2="50%" y2="100%" id="uuunion-grad2"><stop stop-color="#09325f" offset="25%"></stop><stop stop-color="#070c36" offset="100%"></stop></linearGradient><linearGradient gradientTransform="rotate(333, 0.5, 0.5)" x1="50%" y1="0%" x2="50%" y2="100%" id="uuunion-grad3"><stop stop-color="#09325f" offset="0%"></stop><stop stop-color="#070c36" offset="75%"></stop></linearGradient></defs><path d="M-79.41 -83.87Q-64.7 -80.5 -50 -77.06 -35.29 -74.03 -20.58 -71.83 -5.87 -70.77 8.83 -70.98 23.54 -72.45 38.25 -74.97 52.96 -78.19 67.67 -81.65 82.38 -84.89 97.09 -87.45 111.8 -88.97 126.5 -89.24 141.21 -88.23 155.92 -86.07 170.63 -83.07 185.34 -79.65 200.05 -76.27 214.76 -73.4 229.47 -71.46 244.18 -70.7 258.89 -71.23 273.6 -72.98 288.31 -75.71 303.01 -79.03 317.72 -82.48 332.43 -85.59 347.14 -87.92 361.85 -89.15 376.56 -89.11 391.27 -87.8 405.98 -85.4 420.69 -82.26 435.4 -78.79 450.11 -75.5 464.81 -72.83 479.52 -71.16 494.23 -70.71 508.94 -71.56 523.65 -73.57 538.36 -76.48 553.07 -79.88 567.78 -83.3 582.49 -86.25 597.2 -88.34 611.91 -89.26 626.62 -88.9 641.32 -87.3 656.03 -84.69 670.74 -81.42 685.45 -77.95 700.16 -74.77 714.87 -72.32 729.58 -70.93 744.29 -70.8 759 -71.95 773.71 -74.22 788.42 -77.29 803.12 -80.73 817.83 -84.08 832.54 -86.86 847.25 -88.68 861.96 -89.29 861.48 -74.43 863.12 -59.56 866.71 -44.69 871.83 -29.82 877.89 -14.95 884.19 -0.08 890 14.78 894.67 29.65 897.65 44.51 898.59 59.38 897.4 74.25 894.2 89.12 889.37 103.99 883.45 118.86 877.14 133.73 871.16 148.6 866.2 163.46 862.82 178.33 861.42 193.2 862.16 208.07 864.95 222.94 869.47 237.81 875.21 252.68 881.49 267.55 887.6 282.41 892.84 297.28 896.6 312.15 898.45 327.02 898.17 341.89 895.8 356.76 891.61 371.63 886.09 386.5 879.86 401.36 873.65 416.23 868.17 431.1 864.05 445.97 861.77 460.84 861.58 475.71 863.51 490.58 867.34 505.45 872.63 520.31 878.76 535.18 885.04 550.05 890.73 564.92 895.19 579.79 897.9 594.66 898.55 609.53 897.07 624.4 893.61 639.26 888.6 654.13 882.59 669 876.28 683.87 870.4 698.74 865.62 713.61 862.5 728.48 861.4 743.35 862.43 758.21 865.48 773.08 870.21 787.95 876.06 802.82 882.36 817.69 888.4 832.56 893.46 847.43 896.98 862.3 881.7 863.47 866.43 866.94 851.15 872.22 835.88 878.59 820.61 885.15 805.33 890.99 790.06 895.31 774.78 897.5 759.51 897.25 744.24 894.61 728.96 889.93 713.69 883.88 698.42 877.28 683.14 871.07 667.87 866.09 652.59 863.04 637.32 862.36 622.05 864.12 606.77 868.09 591.5 873.71 576.22 880.21 560.95 886.68 545.68 892.22 530.4 896.06 515.13 897.66 499.85 896.82 484.58 893.63 469.31 888.55 454.03 882.28 438.76 875.69 423.49 869.7 408.21 865.14 392.94 862.65 377.66 862.56 362.39 864.9 347.12 869.34 331.84 875.26 316.57 881.83 301.29 888.15 286.02 893.34 270.75 896.67 255.47 897.69 240.2 896.24 224.92 892.54 209.65 887.09 194.38 880.66 179.1 874.14 163.83 868.43 148.56 864.32 133.28 862.4 118.01 862.92 102.73 865.81 87.46 870.68 72.19 876.84 56.91 883.44 41.64 889.56 26.36 894.35 11.09 897.14 -4.17 897.56 -19.45 895.53 -34.72 891.34 -50 885.58 -65.27 879.04 -80.54 872.63 -80.43 857.68 -80.27 842.74 -80.07 827.79 -79.87 812.85 -79.68 797.9 -79.53 782.96 -79.43 768.01 -79.4 753.07 -79.43 738.12 -79.53 723.18 -79.69 708.23 -79.88 693.28 -80.08 678.34 -80.27 663.39 -80.43 648.45 -80.55 633.5 -80.59 618.56 -80.57 603.61 -80.49 588.67 -80.34 573.72 -80.16 558.78 -79.96 543.83 -79.76 528.89 -79.59 513.94 -79.46 498.99 -79.4 484.05 -79.41 469.1 -79.48 454.16 -79.61 439.21 -79.79 424.27 -79.99 409.32 -80.19 394.38 -80.37 379.43 -80.5 364.49 -80.58 349.54 -80.59 334.6 -80.53 319.65 -80.41 304.7 -80.24 289.76 -80.04 274.81 -79.84 259.87 -79.66 244.92 -79.51 229.98 -79.42 215.03 -79.4 200.09 -79.44 185.14 -79.55 170.2 -79.71 155.25 -79.9 140.31 -80.11 125.36 -80.3 110.41 -80.45 95.47 -80.56 80.52 -80.59 65.58 -80.56 50.63 -80.47 35.69 -80.32 20.74 -80.13 5.8 -79.93 -9.14 -79.73 -24.08 -79.57 -39.03 -79.45 -53.97 -79.4 -68.92 -79.41 -83.87" fill="url(#uuunion-grad)"></path><path d="M-79.41 -83.87Q-79.4 -68.92 -79.45 -53.97 -79.57 -39.03 -79.73 -24.08 -79.93 -9.14 -80.13 5.8 -80.32 20.74 -80.47 35.69 -80.56 50.63 -80.59 65.58 -80.56 80.52 -80.45 95.47 -80.3 110.41 -80.11 125.36 -79.9 140.31 -79.71 155.25 -79.55 170.2 -79.44 185.14 -79.4 200.09 -79.42 215.03 -79.51 229.98 -79.66 244.92 -79.84 259.87 -80.04 274.81 -80.24 289.76 -80.41 304.7 -80.53 319.65 -80.59 334.6 -80.58 349.54 -80.5 364.49 -80.37 379.43 -80.19 394.38 -70.13 397.59 -60.06 400.95 -50 404.25 -39.93 407.29 -29.86 409.87 -19.8 411.84 -0.93 413.38 2.33 413.48 15.04 406.32 27.81 397.96 40.62 388.62 53.46 378.59 66.31 368.25 79.15 357.99 91.97 348.19 104.75 339.2 117.49 331.27 130.15 324.55 142.73 319.07 155.21 314.76 167.59 311.42 179.86 308.75 192.01 306.41 204.05 304.02 215.98 301.22 227.8 297.66 239.52 293.11 251.16 287.4 262.74 280.5 274.26 272.47 285.76 263.5 297.26 253.86 308.78 243.88 320.35 233.92 331.99 224.34 343.73 215.44 355.59 207.49 367.59 200.64 379.75 194.93 392.09 190.3 404.63 186.58 417.36 183.53 430.29 180.83 443.43 178.14 456.77 175.11 470.29 171.44 483.98 166.89 497.83 161.29 511.8 154.61 525.87 146.89 540 138.28 554.17 129.02 568.34 119.41 582.46 109.76 596.5 100.41 610.42 91.65 624.19 83.71 637.78 76.76 651.14 70.84 664.25 65.92 677.09 61.85 689.65 58.43 701.9 55.36 713.85 52.35 725.5 49.08 736.85 45.26 747.92 40.67 758.73 35.17 769.31 28.67 779.68 21.23 789.9 12.97 800 4.08 793.41 -13.48 787.85 -31.04 784.19 -48.6 783 -66.16 784.46 -83.73 788.34 -101.29 794.05 -118.85 800.68 -136.41 785.76 -133.74 770.84 -131.93 755.92 -131.22 741.01 -131.72 726.09 -133.36 711.17 -135.9 696.25 -139.01 681.33 -142.25 666.41 -145.18 651.5 -147.4 636.58 -148.61 621.66 -148.63 606.74 -147.46 591.82 -145.28 576.91 -142.36 561.99 -139.12 547.07 -136 532.15 -133.43 517.23 -131.76 502.31 -131.22 487.4 -131.89 472.48 -133.66 457.56 -136.31 442.64 -139.46 427.72 -142.69 412.8 -145.54 397.89 -147.64 382.97 -148.68 368.05 -148.54 353.13 -147.22 338.21 -144.9 323.3 -141.92 308.38 -138.67 293.46 -135.6 278.54 -133.14 263.62 -131.62 248.7 -131.24 233.79 -132.07 218.87 -133.99 203.95 -136.73 189.03 -139.92 174.11 -143.12 159.19 -145.89 144.28 -147.85 129.36 -148.74 114.44 -148.42 99.52 -146.95 84.6 -144.52 69.68 -141.47 54.77 -138.22 39.85 -135.21 24.93 -132.86 10.01 -131.49 -4.9 -131.29 -19.81 -132.28 -34.73 -134.33 -49.65 -137.16 -64.57 -140.37 -79.49 -143.54 -94.41 -146.22 -109.32 -148.04 -124.24 -148.76 -133.69 -135.39 -116.19 -118.82 -106.91 -110.7 -97.69 -102.13 -88.53 -93.16 -79.41 -83.87" fill="url(#uuunion-grad2)" filter="url(#uuunion-blur)"></path><path d="M805.57 405.5Q815.63 402.28 825.7 398.92 835.76 395.62 845.83 392.6 855.89 390.04 865.96 388.09 877.94 394.12 873.65 416.23 868.17 431.1 864.05 445.97 861.77 460.84 861.58 475.71 863.51 490.58 867.34 505.45 872.63 520.31 878.76 535.18 885.04 550.05 890.73 564.92 895.19 579.79 897.9 594.66 898.55 609.53 897.07 624.4 893.61 639.26 888.6 654.13 882.59 669 876.28 683.87 870.4 698.74 865.62 713.61 862.5 728.48 861.4 743.35 862.43 758.21 865.48 773.08 870.21 787.95 876.06 802.82 882.36 817.69 888.4 832.56 893.46 847.43 896.98 862.3 882.96 863.28 868.94 866.23 854.92 870.79 840.91 876.43 826.89 882.48 812.87 888.25 798.86 893.05 784.84 896.32 770.82 897.67 756.81 896.95 742.79 894.24 728.77 889.87 714.76 884.33 700.74 878.29 686.72 872.44 672.7 867.48 658.69 863.99 644.67 862.38 630.65 862.83 616.64 865.29 602.62 869.48 588.6 874.9 574.59 880.92 560.57 886.83 546.55 891.94 532.53 895.65 518.52 897.52 504.5 897.33 490.48 895.12 476.47 891.13 462.45 885.83 448.43 879.85 434.42 873.89 420.4 868.64 406.38 864.73 392.36 862.6 378.35 862.52 364.33 864.48 350.31 868.26 336.3 873.42 322.28 879.35 308.26 885.36 294.25 890.74 280.23 894.85 266.21 897.23 252.2 897.58 238.18 895.87 224.16 892.3 210.14 887.29 196.13 881.42 182.11 875.38 168.09 869.89 154.08 865.58 140.06 862.96 126.04 862.34 112.03 863.79 98.01 867.14 83.99 871.99 69.97 877.79 55.96 883.84 41.94 889.45 27.92 893.94 6.84 892.2 -0.37 877.51 -0.55 867.43 -0.76 857.34 -0.98 847.25 -1.2 837.16 -1.26 822.04 -0.61 817 11.59 809.87 23.77 801.19 35.94 791.21 48.11 780.29 60.29 768.88 72.5 757.5 84.76 746.63 97.08 736.73 109.47 728.12 121.95 721.04 134.53 715.56 147.21 711.58 160 708.89 172.9 707.12 185.9 705.84 199 704.57 212.18 702.82 225.45 700.17 238.78 696.26 252.15 690.89 265.54 683.98 278.93 675.61 292.31 665.98 305.63 655.43 318.88 644.39 332.04 633.32 345.08 622.69 357.98 612.92 370.72 604.33 383.3 597.15 395.69 591.47 407.89 587.2 419.9 584.15 431.72 582.01 443.35 580.37 454.81 578.78 466.1 576.79 477.26 573.99 488.31 570.06 499.27 564.77 510.17 558.06 521.05 549.96 531.94 540.68 542.88 530.51 553.91 519.83 565.06 509.08 576.37 498.7 587.87 489.07 599.58 480.53 611.54 473.28 623.77 467.41 636.27 462.87 649.07 459.49 662.16 456.98 675.54 454.97 689.21 453.05 703.14 450.81 717.31 447.85 731.71 443.87 746.28 438.65 761 432.1 775.82 424.27 790.69 415.31 805.57 405.5 805.57 405.5 805.57 405.5" fill="url(#uuunion-grad3)" filter="url(#uuunion-blur2)"></path></svg>